<?xml version="1.0" encoding="UTF-8"?>
<svg id="Layer_1" data-name="Layer 1" xmlns="http://www.w3.org/2000/svg" version="1.1" xmlns:svg="http://www.w3.org/2000/svg" viewBox="0 0 80 80">
  <defs>
    <style>
      .cls-1 {
        fill: #e4d804;
      }

      .cls-1, .cls-2, .cls-3 {
        stroke-width: 0px;
      }

      .cls-2 {
        fill: #171d22;
      }

      .cls-3 {
        fill: #fff;
      }

      .cls-4 {
        display: none;
      }
    </style>
  </defs>
  <rect class="cls-2" width="80" height="80"/>
  <g class="cls-4">
    <path class="cls-1" d="M47.7,32.5L20.5,5.3C26.1,2.1,32.5.3,39,.2l8.7,32.4ZM50.3,37.3L40.4.1c6.5,0,12.9,1.7,18.6,4.9l-8.7,32.3ZM50.3,42.9L60.3,5.7c5.6,3.3,10.3,7.9,13.7,13.5l-23.7,23.7ZM47.5,47.6l27.3-27.2c3.2,5.7,5,12,5.1,18.6l-32.4,8.6ZM42.7,50.4l37.2-9.9c0,6.5-1.7,12.9-4.9,18.6l-32.4-8.7ZM37.1,50.3l37.2,10c-3.3,5.6-8,10.4-13.5,13.8l-23.7-23.8ZM32.4,47.5l27.2,27.3c-5.7,3.2-12.1,5-18.6,5.1l-8.7-32.4ZM29.6,42.7l10,37.2c-6.5,0-12.9-1.7-18.6-4.9l8.7-32.4ZM29.7,37.2l-10,37.2c-5.6-3.3-10.3-8-13.7-13.6l23.7-23.6ZM32.5,32.4L5.3,59.6C2.1,54,.3,47.6.1,41.1l32.4-8.6ZM37.3,29.7L0,39.6c0-6.5,1.7-12.9,4.9-18.6l32.4,8.7ZM42.9,29.8L5.6,19.7c3.3-5.6,8-10.3,13.6-13.7l23.7,23.8Z"/>
    <animateTransform accumulate="none" additive="replace" attributeName="transform" calcMode="linear" dur="500ms" fill="remove" from="0 64 64" repeatCount="indefinite" restart="always" to="30 64 64" type="rotate"/>
  </g>
  <path class="cls-3" d="M70,71h-.4c-4.1,0-8.2,0-12.3,0-.2,0-.4,0-.5-.3-6.8-11.9-13.7-23.7-20.6-35.6-1-1.8-2.1-3.6-3.1-5.3-.1-.2-.1-.3,0-.5,4.6-8,9.2-15.9,13.8-23.9,0,0,0-.1.2-.2.1.2.2.3.3.5,5.5,9.3,10.9,18.6,16.4,27.8.2.3.1.4,0,.7-2.1,3.7-4.2,7.4-6.3,11.1,0,0,0,.1-.1.2-3.4-6-6.7-11.9-10.1-17.9-.5.6-.9,1.2-1.3,1.8,0,0,0,.2,0,.3,1.1,1.8,2.1,3.7,3.2,5.5,6.9,11.8,13.7,23.6,20.6,35.4,0,.1.1.2.2.4Z"/>
  <path class="cls-3" d="M31.7,53.9c-.1.2-.2.4-.4.6-3.1,5.4-6.3,10.9-9.4,16.3-.1.2-.2.3-.5.3-4,0-8,0-12,0-.1,0-.2,0-.4,0,7.5-13.1,15-26.2,22.5-39.4,7.6,13.1,15.1,26.2,22.7,39.4h-.4c-2.3,0-4.6,0-6.9,0-1.6,0-3.2,0-4.8,0-.3,0-.4,0-.6-.3-3.2-5.5-6.4-11-9.7-16.5,0,0-.1-.2-.2-.3Z"/>
</svg>